<?xml version="1.0" encoding="UTF-8" standalone="no"?>
<svg
   xmlns:sketch="http://www.bohemiancoding.com/sketch/ns"
   xmlns:dc="http://purl.org/dc/elements/1.1/"
   xmlns:cc="http://creativecommons.org/ns#"
   xmlns:rdf="http://www.w3.org/1999/02/22-rdf-syntax-ns#"
   xmlns:svg="http://www.w3.org/2000/svg"
   xmlns="http://www.w3.org/2000/svg"
   xmlns:sodipodi="http://sodipodi.sourceforge.net/DTD/sodipodi-0.dtd"
   xmlns:inkscape="http://www.inkscape.org/namespaces/inkscape"
   width="200px"
   height="200px"
   viewBox="0 0 200 200"
   version="1.1"
   id="svg2"
   inkscape:version="0.48.2 r9819"
   sodipodi:docname="iTunes.svg">
  <metadata
     id="metadata14">
    <rdf:RDF>
      <cc:Work
         rdf:about="">
        <dc:format>image/svg+xml</dc:format>
        <dc:type
           rdf:resource="http://purl.org/dc/dcmitype/StillImage" />
        <dc:title>iTunes</dc:title>
      </cc:Work>
    </rdf:RDF>
  </metadata>
  <sodipodi:namedview
     pagecolor="#ffffff"
     bordercolor="#666666"
     borderopacity="1"
     objecttolerance="10"
     gridtolerance="10"
     guidetolerance="10"
     inkscape:pageopacity="0"
     inkscape:pageshadow="2"
     inkscape:window-width="1474"
     inkscape:window-height="917"
     id="namedview12"
     showgrid="false"
     inkscape:zoom="3.3141406"
     inkscape:cx="100"
     inkscape:cy="100"
     inkscape:window-x="112"
     inkscape:window-y="17"
     inkscape:window-maximized="0"
     inkscape:current-layer="svg2" />
  <title
     id="title4">iTunes</title>
  <description
     id="description6">Created with Sketch (http://www.bohemiancoding.com/sketch)</description>
  <defs
     id="defs8" />
  <path
     style="fill:#444444;fill-rule:evenodd;stroke:none"
     inkscape:connector-curvature="0"
     sketch:type="MSShapeGroup"
     id="iTunes"
     d="M 99.999998,200 C 44.771526,200 0,155.22847 0,100 0,44.77152 44.771526,0 99.999998,0 155.22847,0 200,44.77152 200,100 200,155.22847 155.22847,200 99.999998,200 l 0,0 0,0 z M 149.25,151.125 c -0.0826,-12.674 -0.29088,-37.6784 -0.5,-55.50001 l -0.375,-32.375 -1.375,-2.375 c -2.99955,-5.4008 -9.65714,-10.4116 -15.75,-11.75 -3.70299,-0.814 -11.18492,-0.2744 -14.375,1 -4.7693,1.9068 -9.15012,6.3836 -10.5,10.75 -0.36724,1.1876 -0.51074,3.399 -0.375,5.625 0.30496,5.0016 1.89468,8.1744 6,12.25 6.41233,6.3664 12.39369,7.86821 24.75,6.12501 l 2,-0.25001 0,25.37501 0,25.25 -1.75,0 c -2.04126,-0.002 -18.42147,-2.374 -29,-4.25 -7.01938,-1.2444 -18.074522,-3.6624 -26.625002,-5.75001 L 76.999998,124.25 76.625002,92.62499 C 76.27168,58.09419 75.824052,47.53499 74.625,44.87499 73.589264,42.57819 67.901528,36.923 65,35.375 63.695908,34.6798 61.3743,33.78538 59.874998,33.37499 56.633964,32.48619 49.953106,32.38838 46.625,33.25 c -7.542962,1.96719 -12.711184,8.0184 -13.374998,15.49999 -0.2668,3.0068 -0.220004,3.6002 1.124998,6.625 2.982372,6.708 9.96964,12.4826 16.749998,13.875 2.89384,0.5948 10.80488,0.367 14.000002,-0.37499 l 1.25,-0.37501 0,43.87501 c 0,30.3988 0.139162,44.2854 0.500002,45.375 0.565554,1.7068 -0.176682,1.348 11.874996,5 11.168582,3.3848 23.472172,7.01074 33.875002,8.875 7.65861,1.37247 22.2383,2.2926 29.875,2.375 l 7,0.125 -0.25,-23 z" />
</svg>
